PathFileType	4	(X/Y/Z)	Patient4_TMGait_0pt3_02_right_29.trc.trc
DataRate	CameraRate	NumFrames	NumMarkers	Units	OrigDataRate	OrigDataStartFrame	OrigNumFrames
49.645390070922	49.645390070922	6	33	mm	49.645390070922	124	       141
Frame#	Time	Sacral			L.Shoulder			Chest			R.Shoulder			Neck			R.ASIS			L.ASIS			R.Thigh.Superior			R.Thigh.Lateral			R.Thigh.Inferior			R.Patella			L.Thigh.Superior			L.Thigh.Lateral			L.Thigh.Inferior			L.Patella			L.Shank.Superior			L.Shank.Lateral			L.Shank.Inferior			R.Shank.Superior			R.Shank.Lateral			R.Shank.Inferior			R.Heel			R.Midfoot.Superior			R.Midfoot.Lateral			R.Toe			L.Heel			L.Midfoot.Lateral			L.Midfoot.Superior			L.Toe			L.Elbow			L.Wrist			R.Elbow			R.Wrist			
		X1	Y1	Z1	X2	Y2	Z2	X3	Y3	Z3	X4	Y4	Z4	X5	Y5	Z5	X6	Y6	Z6	X7	Y7	Z7	X8	Y8	Z8	X9	Y9	Z9	X10	Y10	Z10	X11	Y11	Z11	X12	Y12	Z12	X13	Y13	Z13	X14	Y14	Z14	X15	Y15	Z15	X16	Y16	Z16	X17	Y17	Z17	X18	Y18	Z18	X19	Y19	Z19	X20	Y20	Z20	X21	Y21	Z21	X22	Y22	Z22	X23	Y23	Z23	X24	Y24	Z24	X25	Y25	Z25	X26	Y26	Z26	X27	Y27	Z27	X28	Y28	Z28	X29	Y29	Z29	X30	Y30	Z30	X31	Y31	Z31	X32	Y32	Z32	X33	Y33	Z33	

124	58.237571428571	731.435487937217	997.274672795048	410.494493766838	947.332751632801	1425.485485405816	262.123940852030	1009.877456965959	1359.332683552346	442.320028801134	892.326498943654	1436.169529350880	593.130149310660	895.640298011740	1488.812589669195	412.839793955807	939.849141108807	937.375484989843	566.684432761750	969.993436115035	953.410337090444	292.618877262364	1007.405810098625	751.511899877183	547.142207727088	943.234486888118	633.704564566222	609.877782993742	1035.061506056040	591.023159302605	537.572241853521	1057.181911304625	510.388582074476	552.717160118563	974.947699372445	725.715376161059	325.807503531730	868.969715883943	622.572060952915	256.953248876732	928.032819143691	534.918067169940	328.462377384707	913.181120172191	466.511116391158	338.230861821958	876.138741269530	399.565777239957	329.530338252284	771.502176488429	299.004062878905	276.724937670823	798.682179062626	183.402697378527	352.292412027839	1041.674633467491	421.186853627516	563.498758183459	984.962408056838	310.025024988668	628.220198137847	1052.685245362899	221.697981194092	578.130643002097	953.194128985438	41.194419782403	557.243451166645	1119.796951097206	109.808961930985	589.160462759080	1041.097020743289	37.073761200664	625.678856068609	1243.666437472458	69.428652697293	606.819453616211	651.720118960822	38.766625608147	394.877423572662	724.908366867606	35.174518382466	313.851042239342	809.851359890684	94.821566245899	341.048349017472	937.152161794575	40.228196578277	309.947516017947	1092.368651672303	1135.557922672230	109.704350097893	1350.838817479792	1130.613259113914	135.876518382140	725.020944207758	1131.060051139434	678.010668000757	695.151553917603	870.186946763420	687.877978431690	
125	58.257714285714	733.746334618683	996.022764140491	414.468717055163	948.183728596589	1424.916168936731	267.519086957124	1010.942442026117	1358.688593405940	447.637072423157	893.055093807167	1434.984195130069	598.523850472266	896.162316497071	1487.848271641337	418.305272744982	942.207358987349	936.194576435738	570.722213863129	972.586697198036	952.709896488649	296.898125635801	1010.413862740757	750.279434095562	550.201158591508	945.171951638502	632.048063974635	611.462592066007	1037.282436121369	590.141506445050	539.204726377201	1058.195855757733	508.647623375232	553.385123182858	975.851495308077	724.253104885016	328.958895278200	868.380993025665	622.322785770483	259.830474205984	926.354219148503	533.765607410943	330.972104065231	910.859581841805	465.240672997347	340.397882646465	872.990854474958	398.813248023712	331.370558600595	767.150654564760	299.568292597314	278.101928596616	793.482683174277	183.175298702342	352.905488731975	1042.188143912455	418.772114399200	563.939110554768	984.316927413839	308.119115602806	628.258732608179	1050.274459142158	219.261195255168	577.316432821739	947.586379211123	41.125893055521	556.310053836360	1115.095897402124	107.269595169879	587.325894551926	1035.350933451670	36.705426376524	625.037836011256	1238.464483128840	65.347151341851	605.607192150008	645.596220365525	38.875737070893	394.833715250128	718.873624479711	35.175920256110	313.907877437671	803.887887609962	94.836363099337	341.126167835215	931.179842856189	40.069842266606	309.913116177261	1095.518206415640	1137.444174288277	113.665961997738	1353.766975546120	1142.144615908061	139.893862365465	728.877157304134	1127.831787939862	682.679308542579	701.599071100661	866.578764752251	692.180662913056	
126	58.277857142857	736.191506002072	995.069009448339	418.754317560887	949.214578580791	1424.638021654434	273.104146384996	1012.258922651111	1358.249691401340	453.099584282933	894.102167144209	1433.983650513584	604.124235094487	896.904962755638	1487.128274864404	424.004720170696	944.898930158361	935.376965971902	574.922872382120	975.187193591175	952.206437180970	301.292075710762	1013.960647419743	749.612237305040	552.992673918464	948.156607095092	630.970656673270	613.164348250612	1040.237433659941	589.726723306294	540.656280877548	1060.018024515457	507.139927992247	554.015382076785	976.848712560724	722.957015220685	332.155860797162	867.913003854295	622.184239478637	262.900123534481	925.037256771104	532.729789402988	333.550201403151	909.000770276068	463.992417109432	342.578402817728	870.142530988345	398.152082829161	333.270865284504	762.967925999143	300.375988750506	279.593265095669	788.413654948341	183.102118629085	353.503615808662	1043.191732442768	416.627854677633	564.385790068282	983.998443455565	306.693365740777	628.614920084789	1047.633153335217	217.038761410423	576.591427204537	941.108368848937	41.240627443669	555.672299875115	1109.636235774897	104.927484292115	585.701281232850	1028.780897713350	36.507683377191	624.663138902502	1232.505655779374	61.432779927131	604.525957068299	639.477437837989	39.259185956353	394.752507520482	712.867880158188	35.302575269901	313.956837215522	798.026598652880	94.905925194496	341.154129253240	925.240749849265	39.865773070661	309.854200763466	1098.307399454615	1139.307767254921	117.773387240558	1356.080186123909	1152.751621447233	143.958795001234	733.144798767288	1124.751856735748	687.859567240715	708.633786856293	863.185857871846	697.404496378481	
127	58.298000000000	738.709791264734	994.445477383001	423.375575937872	950.401086365481	1424.665256660676	278.807526022993	1013.805805462106	1358.042237592971	458.634136602443	895.473042686410	1433.229676134027	609.852801204460	897.872000521923	1486.686931547775	429.858453988534	947.863909312913	934.939189050579	579.286722614957	977.705005250777	951.932359250795	305.780095477961	1017.825574076508	749.429493415585	555.601012419614	951.895250917047	630.420477114450	615.075694525789	1043.625790757866	589.661681097040	542.040468922846	1062.367096354143	505.861958126113	554.712779781369	977.908376824563	721.903819794973	335.407301764443	867.617812929088	622.177714659634	266.138936353743	924.197991691773	531.852050065185	336.156351555915	907.736705551559	462.784864138108	344.706852851434	867.708873761312	397.605206483514	335.185679287459	759.051146080544	301.483893788188	281.187472373960	783.547120286334	183.241249221101	354.060378990619	1044.486850099404	414.797627760264	564.913379261016	983.939201933728	305.699776386859	629.311291774347	1044.882507276676	215.100707118422	576.018566015369	934.238248512128	41.450148468317	555.316697955090	1103.777340998937	102.903920352604	584.370328032489	1021.856721770949	36.441367613029	624.533917923557	1226.191193541722	57.959824579197	603.631371675173	633.396911089274	40.070405077788	394.632577614972	706.906170829857	35.641789464551	313.992204088658	792.316915005691	95.056601591607	341.112402803178	919.326907611625	39.614088242262	309.771820189089	1100.756030827483	1141.141909031468	122.006404504505	1357.892669014547	1162.299199660445	148.064795947483	737.657546840239	1122.016161018999	693.498570720166	715.998203549954	860.209451240868	703.458882300399	
128	58.318142857143	741.244957659630	994.155249800837	428.366713449770	951.675481852576	1424.989137182041	284.556668832968	1015.546814948175	1358.079958031881	464.158449785769	897.171541093375	1432.760496062352	615.638635413275	899.045656683072	1486.536621720520	435.790402524018	951.049243559461	934.862358833666	583.800915160539	980.056728186578	951.906741704747	310.340847964083	1021.772913899617	749.589365142961	558.149085142897	956.001724635234	630.284306447255	617.260591150740	1047.102307560252	589.795919792528	543.481919352948	1064.898152535166	504.774053913848	555.562054445745	979.044546971543	721.161712131666	338.716765838517	867.599409477224	622.309703994809	269.520207226298	924.005177118833	531.165865967438	338.750133700998	907.250322494669	461.630165606964	346.719485135121	865.855493835123	397.186058299525	337.068472381310	755.541890918304	302.952054387159	282.870376060700	778.983931112290	183.656974385292	354.549413170173	1045.808727245470	413.276222127336	565.579377084618	983.962459577941	305.050804995155	630.314577116917	1042.040854698436	213.471170785350	575.632914592426	927.304905849078	41.688864226806	555.196908590958	1097.758816663494	101.260429524756	583.367165058354	1014.894952925279	36.469196875821	624.603934461335	1219.787085921918	55.082386624605	602.952757766122	627.408220306171	41.493830195637	394.476788445353	701.011892381000	36.304903095519	314.009656562249	786.820470151135	95.322199388352	340.980799146971	913.424743946264	39.316444535332	309.669658925681	1102.840829043580	1142.905953710587	126.363791971535	1359.273310117828	1170.615417210057	152.210554741305	742.308437650349	1119.760066335054	699.552164140321	723.507822638905	857.784437051448	710.233000439050	
129	58.338285714286	743.747025412890	994.179463547450	433.760670425974	952.938740842824	1425.582133416807	290.284579636075	1017.435462075302	1358.363425042552	469.589673467334	899.199997131475	1432.589700347858	621.423297890178	900.390448406795	1486.669812285822	441.734584096774	954.404430937271	935.100731373561	588.439573252077	982.170674679450	952.133989211514	314.955237920336	1025.578243506908	749.920289566962	560.777360669242	960.059435389064	630.418366071910	619.750490183366	1050.325300159097	589.979085664715	545.094839144962	1067.252332119864	503.818999393819	556.620640012525	980.316796468052	720.784391076936	342.085966101155	868.009900755513	622.571020582846	273.016818885159	924.668626168495	530.695457046836	341.299723140164	907.761693461035	460.535857014390	348.565704302086	864.788666450651	396.900094234714	338.878327419890	752.621682093704	304.842060746293	284.626944161121	774.852057590033	184.419398954862	354.948496729609	1046.874260438209	412.026011198443	566.422182096376	983.836613164797	304.640361515082	631.557392384927	1039.054648817754	212.137763888755	575.445162940435	920.494375769396	41.914067091123	555.249754172718	1091.711845144555	100.004648475809	582.683503974848	1008.068768565633	36.557694575815	624.813678489212	1213.436986069782	52.842792459073	602.493987979707	621.588447811492	43.736905500079	394.292386278388	695.220059120203	37.425542323634	314.007766560715	781.610795864585	95.744525705283	340.741656403851	907.516800151198	38.977727003375	309.554095483921	1104.485640806332	1144.521534795818	130.861946095504	1360.231510926778	1177.494451547382	156.397492977080	747.059448586619	1118.050025753326	705.988308602874	731.068635615956	855.972583230955	717.608726068920	
